<svg width="16" height="16" viewBox="0 0 16 16" fill="none" xmlns="http://www.w3.org/2000/svg">
<path d="M15.447 8.89401C15.6129 8.81087 15.7524 8.68322 15.8498 8.52533C15.9473 8.36745 15.9989 8.18556 15.9989 8.00001C15.9989 7.81446 15.9473 7.63257 15.8498 7.47468C15.7524 7.3168 15.6129 7.18915 15.447 7.10601L1.447 0.106006C1.27341 0.0191502 1.0783 -0.015309 0.885459 0.00683236C0.692621 0.0289737 0.510395 0.106758 0.361011 0.230698C0.211626 0.354637 0.101541 0.519373 0.0441847 0.70481C-0.0131722 0.890247 -0.0153218 1.08837 0.0379991 1.27501L1.467 6.27501C1.52677 6.48398 1.653 6.66779 1.82658 6.79861C2.00017 6.92943 2.21164 7.00013 2.429 7.00001L7 7.00001C7.26522 7.00001 7.51957 7.10536 7.70711 7.2929C7.89464 7.48044 8 7.73479 8 8.00001C8 8.26522 7.89464 8.51958 7.70711 8.70711C7.51957 8.89465 7.26522 9.00001 7 9.00001L2.429 9.00001C2.21164 8.99988 2.00017 9.07059 1.82658 9.2014C1.653 9.33222 1.52677 9.51603 1.467 9.72501L0.038998 14.725C-0.0144278 14.9116 -0.012408 15.1097 0.0448134 15.2951C0.102035 15.4806 0.211984 15.6454 0.361252 15.7694C0.51052 15.8934 0.692655 15.9714 0.885447 15.9937C1.07824 16.016 1.27335 15.9817 1.447 15.895L15.447 8.89501L15.447 8.89401Z" fill="#FAFAFA"/>
</svg>
