<svg width="18" height="16" viewBox="0 0 18 16" fill="none" xmlns="http://www.w3.org/2000/svg">
<path fill-rule="evenodd" clip-rule="evenodd" d="M8.67767 15.3777C8.47139 15.5839 8.19166 15.6998 7.89997 15.6998C7.60829 15.6998 7.32856 15.5839 7.12228 15.3777L0.522276 8.77769C0.316057 8.57141 0.200211 8.29167 0.200211 7.99999C0.200211 7.70831 0.316057 7.42857 0.522276 7.22229L7.12228 0.62229C7.32974 0.421916 7.6076 0.311042 7.89602 0.313549C8.18443 0.316055 8.46033 0.431741 8.66428 0.63569C8.86822 0.839639 8.98391 1.11553 8.98642 1.40395C8.98892 1.69237 8.87805 1.97023 8.67767 2.17769L3.95538 6.89999H16.7C16.9917 6.89999 17.2715 7.01588 17.4778 7.22217C17.6841 7.42846 17.8 7.70825 17.8 7.99999C17.8 8.29173 17.6841 8.57152 17.4778 8.77781C17.2715 8.9841 16.9917 9.09999 16.7 9.09999H3.95538L8.67767 13.8223C8.88389 14.0286 8.99974 14.3083 8.99974 14.6C8.99974 14.8917 8.88389 15.1714 8.67767 15.3777V15.3777Z" fill="#A1A1AA"/>
</svg>
