<svg width="18" height="6" viewBox="0 0 18 6" fill="none" xmlns="http://www.w3.org/2000/svg">
<path d="M4.6 2.99999C4.6 3.58346 4.36821 4.14304 3.95563 4.55562C3.54305 4.9682 2.98347 5.19999 2.4 5.19999C1.81652 5.19999 1.25694 4.9682 0.844362 4.55562C0.431782 4.14304 0.199997 3.58346 0.199997 2.99999C0.199997 2.41651 0.431782 1.85693 0.844362 1.44435C1.25694 1.03177 1.81652 0.799988 2.4 0.799988C2.98347 0.799988 3.54305 1.03177 3.95563 1.44435C4.36821 1.85693 4.6 2.41651 4.6 2.99999ZM11.2 2.99999C11.2 3.58346 10.9682 4.14304 10.5556 4.55562C10.1431 4.9682 9.58347 5.19999 9 5.19999C8.41652 5.19999 7.85694 4.9682 7.44436 4.55562C7.03178 4.14304 6.8 3.58346 6.8 2.99999C6.8 2.41651 7.03178 1.85693 7.44436 1.44435C7.85694 1.03177 8.41652 0.799988 9 0.799988C9.58347 0.799988 10.1431 1.03177 10.5556 1.44435C10.9682 1.85693 11.2 2.41651 11.2 2.99999V2.99999ZM15.6 5.19999C16.1835 5.19999 16.743 4.9682 17.1556 4.55562C17.5682 4.14304 17.8 3.58346 17.8 2.99999C17.8 2.41651 17.5682 1.85693 17.1556 1.44435C16.743 1.03177 16.1835 0.799988 15.6 0.799988C15.0165 0.799988 14.4569 1.03177 14.0444 1.44435C13.6318 1.85693 13.4 2.41651 13.4 2.99999C13.4 3.58346 13.6318 4.14304 14.0444 4.55562C14.4569 4.9682 15.0165 5.19999 15.6 5.19999Z" fill="#A1A1AA"/>
</svg>
